<?xml version="1.0" standalone="no"?>
<!DOCTYPE svg PUBLIC "-//W3C//DTD SVG 20010904//EN"
 "http://www.w3.org/TR/2001/REC-SVG-20010904/DTD/svg10.dtd">
<svg version="1.0" xmlns="http://www.w3.org/2000/svg"
 width="1280.000000pt" height="1215.000000pt" viewBox="0 0 1280.000000 1215.000000"
 preserveAspectRatio="xMidYMid meet">
<g transform="translate(0.000000,1215.000000) scale(0.100000,-0.100000)"
fill="#000000" stroke="none">
<path d="M173 12002 l-43 -3 0 -5903 0 -5903 61 -7 c79 -8 12372 -8 12393 0
15 6 16 536 16 5910 0 4716 -3 5904 -12 5905 -34 3 -12379 4 -12415 1z m11127
-431 c0 -9 -27 -14 -440 -76 -274 -41 -2067 -301 -2563 -371 -108 -15 -202
-31 -207 -34 -7 -4 -11 -1664 -13 -4955 l-2 -4949 35 -7 c19 -4 640 -105 1380
-224 1425 -229 1866 -301 1915 -312 23 -6 10 -9 -55 -14 -109 -9 -9754 -9
-9840 0 -43 4 -58 9 -45 13 29 10 353 77 1735 358 679 138 1243 253 1253 256
16 5 17 249 17 4945 0 2716 -2 4939 -5 4939 -14 0 -2177 310 -2519 361 -220
32 -404 59 -409 59 -4 0 -5 5 -2 10 8 13 9765 14 9765 1z m-8610 -1212 c773
-83 1415 -155 1428 -160 l22 -9 0 -1794 0 -1794 -82 -6 c-131 -8 -2784 -47
-2801 -40 -8 3 -18 15 -21 27 -8 30 -7 3775 1 3860 5 59 8 67 27 67 12 0 653
-68 1426 -151z m8866 94 c8 -67 -1 -3881 -9 -3890 -8 -7 -2959 -20 -3012 -13
l-40 5 -3 890 c-2 490 0 1301 4 1802 l6 913 33 6 c40 7 2950 342 2987 343 25
1 27 -2 34 -56z m-7418 -6646 c2 -1433 0 -1799 -10 -1802 -29 -11 -2819 -495
-2851 -495 -27 0 -36 5 -41 23 -8 30 -8 3788 0 3865 5 44 11 63 23 66 9 3 558
33 1221 66 663 34 1268 65 1345 69 77 5 178 8 225 7 l85 -1 3 -1798z m6012
1708 c756 -20 1381 -38 1388 -40 18 -6 18 -3928 -1 -3943 -14 -12 -2980 384
-3034 405 -11 4 -13 327 -13 1802 0 989 3 1801 7 1804 11 12 245 8 1653 -28z"/>
</g>
</svg>
